<svg xmlns="http://www.w3.org/2000/svg" width="200" height="44" viewBox="0 0 200 44">
    <g fill="none" fill-rule="evenodd">
        <g fill="#FF9E18">
            <path fill-rule="nonzero" d="M16.661 33.006c-1.446 0-2.892-.192-4.299-.573a16.315 16.315 0 0 1-9.951-7.68A16.325 16.325 0 0 1 .8 12.29C2.735 5.142 9.25.151 16.645.151c1.446 0 2.892.192 4.299.573 8.739 2.365 13.925 11.402 11.56 20.144-1.932 7.147-8.447 12.138-15.842 12.138zm-.02-30.112c-6.157 0-11.584 4.158-13.193 10.112a13.588 13.588 0 0 0 1.34 10.382 13.591 13.591 0 0 0 8.289 6.396c1.173.316 2.379.478 3.582.478 6.158 0 11.584-4.158 13.195-10.109 1.969-7.28-2.352-14.81-9.63-16.78a13.662 13.662 0 0 0-3.582-.479z"/>
            <path d="M11.745 25.337c-2.5 0-4.736-.674-6.51-1.828C.773 20.608-.627 15.215 1.67 9.774l2.527 1.067c-1.755 4.158-.76 8.228 2.532 10.37 3.985 2.59 11.06 1.96 17.869-5.296l2 1.878c-5.062 5.395-10.384 7.544-14.853 7.544z"/>
            <path d="M18.25 32.953l-.34-2.722c4.523-.564 7.58-3.502 7.791-7.487.25-4.744-3.803-10.54-13.426-12.793l.624-2.67c11.167 2.615 15.852 9.723 15.538 15.608-.279 5.296-4.374 9.34-10.187 10.064z"/>
            <path d="M11.016 24.382c-3.334-11.048.352-18.627 5.485-21.24 4.634-2.36 9.932-.84 13.497 3.869L27.81 8.666c-2.721-3.597-6.67-4.805-10.065-3.08-4.117 2.096-6.98 8.472-4.102 18.003l-2.627.793z"/>
        </g>
        <g fill="#FFF">
            <path fill-rule="nonzero" d="M38.399 41.346l1.482-2.994c1.842 1.152 3.818 1.842 6.187 1.842 3.555 0 5.497-1.842 5.497-5.334v-1.348c-1.448 1.876-3.259 3.193-6.124 3.193-4.08 0-7.9-3.028-7.9-8.131v-.066c0-5.135 3.851-8.163 7.9-8.163 2.93 0 4.741 1.351 6.09 2.962v-2.6h3.983v13.825c0 2.929-.758 5.101-2.204 6.552-1.58 1.58-4.017 2.338-7.145 2.338-2.86 0-5.528-.727-7.766-2.076zm13.2-12.772v-.066c0-2.865-2.338-4.807-5.103-4.807-2.766 0-4.938 1.91-4.938 4.773v.065c0 2.866 2.204 4.807 4.938 4.807 2.765 0 5.103-1.975 5.103-4.772z"/>
            <path d="M59.07 14.058h3.982v24.03H59.07z"/>
            <path fill-rule="nonzero" d="M65.652 29.495v-.066c0-4.97 3.952-9.086 9.284-9.086 5.334 0 9.249 4.048 9.249 9.02v.066c0 4.938-3.95 9.052-9.315 9.052-5.3.003-9.218-4.048-9.218-8.986zm14.55 0v-.066c0-3.062-2.204-5.594-5.332-5.594-3.193 0-5.235 2.5-5.235 5.528v.066c0 3.028 2.207 5.597 5.3 5.597 3.228 0 5.267-2.535 5.267-5.531zM90.571 35.388v2.7h-3.983v-24.03h3.983v9.546c1.283-1.81 3.094-3.259 5.893-3.259 4.114 0 8.097 3.259 8.097 9.02v.066c0 5.76-3.951 9.019-8.097 9.019-2.865 0-4.675-1.449-5.893-3.062zm9.94-5.96v-.065c0-3.358-2.273-5.562-4.973-5.562-2.7 0-5.069 2.238-5.069 5.562v.066c0 3.358 2.37 5.562 5.07 5.562 2.733.003 4.971-2.138 4.971-5.562zM117.626 38.087v-2.14c-1.184 1.416-2.994 2.503-5.628 2.503-3.293 0-6.19-1.876-6.19-5.366v-.066c0-3.852 2.996-5.694 7.045-5.694 2.107 0 3.456.297 4.804.725v-.33c0-2.404-1.514-3.719-4.277-3.719-1.941 0-3.392.428-4.972 1.086l-1.086-3.193c1.908-.855 3.786-1.448 6.617-1.448 5.135 0 7.638 2.7 7.638 7.339v10.303h-3.951zm.1-7.275c-1.021-.396-2.438-.69-3.984-.69-2.5 0-3.983 1.02-3.983 2.697v.068c0 1.645 1.48 2.569 3.359 2.569 2.634 0 4.607-1.48 4.607-3.655v-.99z"/>
            <path d="M124.9 14.058h3.982v24.03H124.9z"/>
            <path fill-rule="nonzero" d="M131.844 29.725v-.065c0-4.873 3.425-8.756 7.966-8.756 4.708 0 7.702 3.818 7.702 8.79 0 .296 0 .396-.034.658h-13.925c.296 4.183 3.293 6.618 6.583 6.618 2.6 0 4.377-1.152 5.76-2.632l1.117.986c-1.71 1.845-3.718 3.162-6.945 3.162-4.403-.002-8.224-3.526-8.224-8.76zm13.925-.821c-.23-3.392-2.172-6.518-6.024-6.518-3.325 0-5.893 2.797-6.19 6.518h12.214zM149.815 29.76v-.066c0-5.463 4.117-8.79 8.166-8.79 3.358 0 5.53 1.91 6.913 4.017V14.058h1.614v24.03h-1.614v-3.753c-1.448 2.207-3.589 4.149-6.913 4.149-4.049 0-8.166-3.26-8.166-8.725zm15.176-.035v-.065c0-4.314-3.358-7.208-6.845-7.208-3.653 0-6.583 2.666-6.583 7.176v.066c0 4.41 3.06 7.242 6.583 7.242 3.487 0 6.845-2.931 6.845-7.21zM171.344 14.717h2.007v2.204h-2.007v-2.204zm.197 6.583h1.61v16.787h-1.61V21.3z"/>
            <path d="M179.079 33.774V22.78h-2.435v-1.482h2.435v-5.366h1.614v5.366h5.893v1.482h-5.893V33.61c0 2.403 1.416 3.261 3.358 3.261.821 0 1.514-.165 2.469-.593v1.514a6.181 6.181 0 0 1-2.731.593c-2.603 0-4.71-1.417-4.71-4.61z"/>
        </g>
        <path fill="#FFF" fill-rule="nonzero" d="M190.24 16.474v5.205h-.99v-5.205h-1.882v-.802h4.754v.802h-1.881zm8.72 5.205v-5.016h-.03l-1.968 5.016h-.627l-1.968-5.016h-.03v5.016h-.99v-6.007h1.53l1.794 4.564 1.764-4.564h1.516v6.007h-.991z"/>
    </g>
</svg>
